<svg width="50" height="45" viewBox="0 0 50 45" fill="none" xmlns="http://www.w3.org/2000/svg">
<g filter="url(#filter0_dd_203_21001)">
<path d="M15.3699 23.4582L14.2002 24.3871C14.482 24.6726 14.8814 24.8426 15.3062 24.8581C15.7309 24.8738 16.1444 24.7335 16.4513 24.4695L15.3699 23.4582ZM19.8314 21.5633C20.4543 21.0277 20.4751 20.1406 19.8779 19.582C19.2806 19.0235 18.2916 19.0048 17.6687 19.5403L19.8314 21.5633ZM13.6698 19.6229C13.0976 19.0435 12.1101 18.9897 11.4641 19.5027C10.8181 20.0158 10.7582 20.9014 11.3303 21.4807L13.6698 19.6229ZM31.1077 16.8325C31.6938 17.4006 32.6823 17.4351 33.3156 16.9096C33.9492 16.3841 33.9877 15.4975 33.4017 14.9294L31.1077 16.8325ZM25.0911 11.6772C18.8709 11.6772 13.8074 16.1668 13.8074 21.7281H16.9324C16.9324 17.7353 20.5736 14.4797 25.0911 14.4797V11.6772ZM13.8074 21.7281V23.4582H16.9324V21.7281H13.8074ZM16.4513 24.4695L19.8314 21.5633L17.6687 19.5403L14.2886 22.4467L16.4513 24.4695ZM16.5397 22.5291L13.6698 19.6229L11.3303 21.4807L14.2002 24.3871L16.5397 22.5291ZM33.4017 14.9294C31.3398 12.9307 28.3775 11.6772 25.0911 11.6772V14.4797C27.4748 14.4797 29.6154 15.386 31.1077 16.8325L33.4017 14.9294Z" fill="#DADDE7"/>
<path d="M34.6227 21.3817L35.7908 20.4511C35.5085 20.1662 35.1091 19.9967 34.6845 19.9816C34.26 19.9664 33.8468 20.1071 33.5404 20.3711L34.6227 21.3817ZM30.1679 23.2758C29.5454 23.8118 29.5256 24.6989 30.1233 25.257C30.721 25.8152 31.7102 25.8332 32.3325 25.2972L30.1679 23.2758ZM36.332 25.2172C36.9052 25.7956 37.8929 25.8479 38.5379 25.334C39.1831 24.82 39.2414 23.9344 38.6683 23.3558L36.332 25.2172ZM18.8478 28.0337C18.2573 27.4695 17.2685 27.4412 16.6392 27.9709C16.01 28.5004 15.9786 29.3873 16.5692 29.9515L18.8478 28.0337ZM24.8643 33.1626C31.0993 33.1626 36.1852 28.6781 36.1852 23.1118H33.0602C33.0602 27.0995 29.4081 30.3601 24.8643 30.3601V33.1626ZM36.1852 23.1118V21.3817H33.0602V23.1118H36.1852ZM33.5404 20.3711L30.1679 23.2758L32.3325 25.2972L35.705 22.3925L33.5404 20.3711ZM33.4545 22.3125L36.332 25.2172L38.6683 23.3558L35.7908 20.4511L33.4545 22.3125ZM16.5692 29.9515C18.6365 31.9269 21.5908 33.1626 24.8643 33.1626V30.3601C22.4835 30.3601 20.3449 29.4643 18.8478 28.0337L16.5692 29.9515Z" fill="#DADDE7"/>
<path d="M45.8332 22.4201C45.8332 31.2274 45.8332 35.6312 42.7821 38.3672C39.7313 41.1034 34.8207 41.1034 24.9998 41.1034C15.1789 41.1034 10.2684 41.1034 7.21748 38.3672C4.1665 35.6312 4.1665 31.2274 4.1665 22.4201C4.1665 13.6127 4.1665 9.20902 7.21748 6.47293C10.2684 3.73682 15.1789 3.73682 24.9998 3.73682C34.8207 3.73682 39.7313 3.73682 42.7821 6.47293C44.8109 8.29219 45.4907 10.8487 45.7184 14.9468" stroke="#DADDE7" stroke-width="4.4484" stroke-linecap="round"/>
</g>
<defs>
<filter id="filter0_dd_203_21001" x="-0.355872" y="0" width="50.7117" height="45.5516" filterUnits="userSpaceOnUse" color-interpolation-filters="sRGB">
<feFlood flood-opacity="0" result="BackgroundImageFix"/>
<feColorMatrix in="SourceAlpha" type="matrix" values="0 0 0 0 0 0 0 0 0 0 0 0 0 0 0 0 0 0 127 0" result="hardAlpha"/>
<feOffset dy="0.355872"/>
<feGaussianBlur stdDeviation="0.177936"/>
<feComposite in2="hardAlpha" operator="out"/>
<feColorMatrix type="matrix" values="0 0 0 0 0 0 0 0 0 0 0 0 0 0 0 0 0 0 0.25 0"/>
<feBlend mode="normal" in2="BackgroundImageFix" result="effect1_dropShadow_203_21001"/>
<feColorMatrix in="SourceAlpha" type="matrix" values="0 0 0 0 0 0 0 0 0 0 0 0 0 0 0 0 0 0 127 0" result="hardAlpha"/>
<feOffset dy="0.355872"/>
<feGaussianBlur stdDeviation="0.177936"/>
<feComposite in2="hardAlpha" operator="out"/>
<feColorMatrix type="matrix" values="0 0 0 0 0 0 0 0 0 0 0 0 0 0 0 0 0 0 0.25 0"/>
<feBlend mode="normal" in2="effect1_dropShadow_203_21001" result="effect2_dropShadow_203_21001"/>
<feBlend mode="normal" in="SourceGraphic" in2="effect2_dropShadow_203_21001" result="shape"/>
</filter>
</defs>
</svg>
